<svg width="25" height="24" viewBox="0 0 25 24" fill="none" xmlns="http://www.w3.org/2000/svg">
<path fill-rule="evenodd" clip-rule="evenodd" d="M20.625 4.5H4.12503C3.2966 4.5 2.62503 5.17157 2.62503 6V21C2.62149 21.5843 2.9609 22.1163 3.49221 22.3594C3.69043 22.4517 3.90638 22.4997 4.12503 22.5C4.47716 22.4992 4.8176 22.3736 5.08596 22.1456C5.09044 22.1427 5.09453 22.1392 5.09815 22.1353L8.1094 19.5H20.625C21.4535 19.5 22.125 18.8284 22.125 18V6C22.125 5.17157 21.4535 4.5 20.625 4.5ZM20.625 18H8.1094C7.75617 17.9998 7.41422 18.1243 7.14378 18.3516L7.13253 18.3619L4.12503 21V6H20.625V18Z" fill="#171217" stroke="#171217" stroke-width="0.5"/>
</svg>
