<svg width="20" height="19" viewBox="0 0 20 19" fill="none" xmlns="http://www.w3.org/2000/svg">
<path fill-rule="evenodd" clip-rule="evenodd" d="M18.25 0.25H1.75003C0.9216 0.25 0.250027 0.921573 0.250027 1.75V16.75C0.246494 17.3343 0.585898 17.8663 1.11721 18.1094C1.31543 18.2017 1.53138 18.2497 1.75003 18.25C2.10216 18.2492 2.4426 18.1236 2.71096 17.8956C2.71544 17.8927 2.71953 17.8892 2.72315 17.8853L5.7344 15.25H18.25C19.0785 15.25 19.75 14.5784 19.75 13.75V1.75C19.75 0.921573 19.0785 0.25 18.25 0.25ZM18.25 13.75H5.7344C5.38117 13.7498 5.03922 13.8743 4.76878 14.1016L4.75753 14.1119L1.75003 16.75V1.75H18.25V13.75Z" fill="#8C5E8A" stroke="#8C5E8A" stroke-width="0.5"/>
</svg>
