<svg width="25" height="32" viewBox="0 0 25 32" fill="none" xmlns="http://www.w3.org/2000/svg">
<g clip-path="url(#clip0_227_2648)">
<path fill-rule="evenodd" clip-rule="evenodd" d="M21.625 14.8328V23.5C21.625 24.3284 20.9534 25 20.125 25H16.375C15.5466 25 14.875 24.3284 14.875 23.5V19.75C14.875 19.3358 14.5392 19 14.125 19H11.125C10.7108 19 10.375 19.3358 10.375 19.75V23.5C10.375 24.3284 9.70343 25 8.875 25H5.125C4.29657 25 3.625 24.3284 3.625 23.5V14.8328C3.62494 14.4131 3.80073 14.0125 4.10969 13.7284L11.6097 6.65219L11.62 6.64188C12.1922 6.1215 13.0662 6.1215 13.6384 6.64188C13.6416 6.64554 13.6451 6.64899 13.6488 6.65219L21.1488 13.7284C21.4546 14.014 21.6272 14.4144 21.625 14.8328Z" fill="#171217"/>
</g>
<defs>
<clipPath id="clip0_227_2648">
<rect width="24" height="24" fill="white" transform="translate(0.625 4)"/>
</clipPath>
</defs>
</svg>
