<svg width="25" height="30" viewBox="0 0 25 30" fill="none" xmlns="http://www.w3.org/2000/svg">
<path d="M21.7112 5.82318C21.6214 5.73567 21.5168 5.6749 21.4054 5.64545C21.2939 5.61601 21.1786 5.61868 21.0681 5.65326L15.3372 7.44388L9.58563 3.84857C9.42537 3.74865 9.24181 3.72371 9.06812 3.77826L3.06812 5.65326C2.90587 5.70395 2.76183 5.82099 2.65889 5.98575C2.55595 6.15052 2.50003 6.35357 2.5 6.56263V23.4376C2.50002 23.5801 2.52601 23.7207 2.57599 23.8487C2.62598 23.9767 2.69864 24.0888 2.78847 24.1765C2.87831 24.2641 2.98294 24.325 3.09442 24.3546C3.20591 24.3841 3.32131 24.3815 3.43187 24.347L9.16281 22.5564L14.9144 26.1517C15.0188 26.216 15.1336 26.2497 15.25 26.2501C15.3113 26.2501 15.3724 26.2406 15.4319 26.222L21.4319 24.347C21.5941 24.2963 21.7382 24.1793 21.8411 24.0145C21.944 23.8497 22 23.6467 22 23.4376V6.56263C22 6.42004 21.974 6.27933 21.924 6.15119C21.874 6.02305 21.8012 5.91087 21.7112 5.82318ZM10 6.20404L14.5 9.01654V23.7962L10 20.9837V6.20404ZM4 7.29505L8.5 5.8888V20.8302L4 22.2365V7.29505ZM20.5 22.7052L16 24.1115V9.17005L20.5 7.7638V22.7052Z" fill="#171217"/>
</svg>
