<svg width="25" height="24" viewBox="0 0 25 24" fill="none" xmlns="http://www.w3.org/2000/svg">
<g clip-path="url(#clip0_933_570)">
<path fill-rule="evenodd" clip-rule="evenodd" d="M21.7738 19.875C20.3459 17.4066 18.1456 15.6366 15.5778 14.7975C18.1885 13.2433 19.4392 10.1364 18.6332 7.2069C17.8272 4.27741 15.1633 2.24745 12.125 2.24745C9.08667 2.24745 6.42279 4.27741 5.61682 7.2069C4.81085 10.1364 6.06145 13.2433 8.67219 14.7975C6.10438 15.6356 3.90406 17.4056 2.47625 19.875C2.3337 20.1074 2.32853 20.3989 2.46273 20.6363C2.59694 20.8736 2.84938 21.0194 3.12202 21.0171C3.39467 21.0147 3.64457 20.8646 3.77469 20.625C5.54094 17.5725 8.66281 15.75 12.125 15.75C15.5872 15.75 18.7091 17.5725 20.4753 20.625C20.6054 20.8646 20.8553 21.0147 21.128 21.0171C21.4006 21.0194 21.6531 20.8736 21.7873 20.6363C21.9215 20.3989 21.9163 20.1074 21.7738 19.875V19.875ZM6.875 9C6.875 6.10051 9.22551 3.75 12.125 3.75C15.0245 3.75 17.375 6.10051 17.375 9C17.375 11.8995 15.0245 14.25 12.125 14.25C9.22679 14.2469 6.8781 11.8982 6.875 9V9Z" fill="#171217" stroke="#171217" stroke-width="0.5"/>
</g>
<defs>
<clipPath id="clip0_933_570">
<rect width="24" height="24" fill="white" transform="translate(0.125)"/>
</clipPath>
</defs>
</svg>
