<svg width="25" height="24" viewBox="0 0 25 24" fill="none" xmlns="http://www.w3.org/2000/svg">
<g clip-path="url(#clip0_227_2638)">
<path fill-rule="evenodd" clip-rule="evenodd" d="M22.4056 20.4694L17.7116 15.7762C20.5379 12.383 20.1954 7.36693 16.9341 4.38935C13.6728 1.41176 8.64634 1.526 5.52367 4.64867C2.401 7.77134 2.28676 12.7978 5.26435 16.0591C8.24193 19.3204 13.258 19.6629 16.6512 16.8366L21.3444 21.5306C21.6374 21.8237 22.1126 21.8237 22.4056 21.5306C22.6987 21.2376 22.6987 20.7624 22.4056 20.4694ZM4.625 10.5C4.625 6.77208 7.64708 3.75 11.375 3.75C15.1029 3.75 18.125 6.77208 18.125 10.5C18.125 14.2279 15.1029 17.25 11.375 17.25C7.64879 17.2459 4.62913 14.2262 4.625 10.5Z" fill="#8C5E8A" stroke="#8C5E8A" stroke-width="0.5"/>
</g>
<defs>
<clipPath id="clip0_227_2638">
<rect width="24" height="24" fill="white" transform="translate(0.875)"/>
</clipPath>
</defs>
</svg>
